<mxfile host="app.diagrams.net" modified="2021-10-22T17:15:24.523Z" agent="5.0 (Windows NT 10.0; Win64; x64) AppleWebKit/537.36 (KHTML, like Gecko) Chrome/94.0.4606.81 Safari/537.36" etag="y7mkR81J9bpsGTbXXHpr" version="15.5.4" type="github">
  <diagram id="0_3UglDZoz0hMkn-RKcs" name="Page-1">
    <mxGraphModel dx="782" dy="436" grid="1" gridSize="10" guides="1" tooltips="1" connect="1" arrows="1" fold="1" page="1" pageScale="1" pageWidth="827" pageHeight="1169" math="0" shadow="0">
      <root>
        <mxCell id="0" />
        <mxCell id="1" parent="0" />
        <mxCell id="yKiBgrRsTHylteYTUkuY-1" value="&amp;nbsp;tic-tac-toe game&amp;nbsp;" style="rounded=0;whiteSpace=wrap;html=1;" vertex="1" parent="1">
          <mxGeometry x="310" y="30" width="120" height="50" as="geometry" />
        </mxCell>
        <mxCell id="yKiBgrRsTHylteYTUkuY-8" style="edgeStyle=orthogonalEdgeStyle;rounded=0;orthogonalLoop=1;jettySize=auto;html=1;entryX=0.5;entryY=0;entryDx=0;entryDy=0;" edge="1" parent="1" source="yKiBgrRsTHylteYTUkuY-2" target="yKiBgrRsTHylteYTUkuY-5">
          <mxGeometry relative="1" as="geometry" />
        </mxCell>
        <mxCell id="yKiBgrRsTHylteYTUkuY-9" style="edgeStyle=orthogonalEdgeStyle;rounded=0;orthogonalLoop=1;jettySize=auto;html=1;exitX=0.25;exitY=1;exitDx=0;exitDy=0;entryX=0.5;entryY=0;entryDx=0;entryDy=0;" edge="1" parent="1" source="yKiBgrRsTHylteYTUkuY-2" target="yKiBgrRsTHylteYTUkuY-4">
          <mxGeometry relative="1" as="geometry" />
        </mxCell>
        <mxCell id="yKiBgrRsTHylteYTUkuY-2" value="board" style="rounded=0;whiteSpace=wrap;html=1;" vertex="1" parent="1">
          <mxGeometry x="90" y="110" width="120" height="60" as="geometry" />
        </mxCell>
        <mxCell id="yKiBgrRsTHylteYTUkuY-3" value="" style="endArrow=classic;html=1;rounded=0;exitX=0;exitY=0.5;exitDx=0;exitDy=0;entryX=0.5;entryY=0;entryDx=0;entryDy=0;" edge="1" parent="1" source="yKiBgrRsTHylteYTUkuY-1" target="yKiBgrRsTHylteYTUkuY-2">
          <mxGeometry width="50" height="50" relative="1" as="geometry">
            <mxPoint x="380" y="250" as="sourcePoint" />
            <mxPoint x="430" y="200" as="targetPoint" />
            <Array as="points">
              <mxPoint x="150" y="55" />
            </Array>
          </mxGeometry>
        </mxCell>
        <mxCell id="yKiBgrRsTHylteYTUkuY-4" value="X turn" style="ellipse;whiteSpace=wrap;html=1;" vertex="1" parent="1">
          <mxGeometry y="230" width="120" height="80" as="geometry" />
        </mxCell>
        <mxCell id="yKiBgrRsTHylteYTUkuY-5" value="O turn" style="ellipse;whiteSpace=wrap;html=1;" vertex="1" parent="1">
          <mxGeometry x="150" y="230" width="120" height="80" as="geometry" />
        </mxCell>
        <mxCell id="yKiBgrRsTHylteYTUkuY-12" value="back on time" style="rounded=0;whiteSpace=wrap;html=1;" vertex="1" parent="1">
          <mxGeometry x="490" y="110" width="120" height="60" as="geometry" />
        </mxCell>
      </root>
    </mxGraphModel>
  </diagram>
</mxfile>
